<?xml version="1.0" encoding="UTF-8" standalone="no"?>
<!DOCTYPE svg PUBLIC "-//W3C//DTD SVG 1.1//EN" "http://www.w3.org/Graphics/SVG/1.1/DTD/svg11.dtd">
<svg width="100%" height="100%" viewBox="0 0 1200 1200" version="1.1" xmlns="http://www.w3.org/2000/svg" xmlns:xlink="http://www.w3.org/1999/xlink" xml:space="preserve" xmlns:serif="http://www.serif.com/" style="fill-rule:evenodd;clip-rule:evenodd;stroke-linecap:round;stroke-linejoin:round;stroke-miterlimit:1.5;">
    <rect id="Artboard1" x="0" y="0" width="1200" height="1200" style="fill:none;"/>
    <g id="Artboard11" serif:id="Artboard1">
        <g transform="matrix(1.137784,0,0,1.137784,-120.496507,-53.39973)">
            <circle cx="633.245" cy="574.274" r="472.788" style="fill:rgb(11,27,49);stroke:rgb(233,215,188);stroke-width:18.31px;"/>
        </g>
        <g transform="matrix(0.899925,0,0,0.899925,30.1269,83.19676)">
            <circle cx="633.245" cy="574.274" r="472.788" style="fill:rgb(28,41,59);"/>
            <clipPath id="_clip1">
                <circle cx="633.245" cy="574.274" r="472.788"/>
            </clipPath>
            <g clip-path="url(#_clip1)">
                <g transform="matrix(1.131801,0,0,0.765414,2.245999,258.16592)">
                    <g transform="matrix(1.276883,0,0,1.276883,-446.324988,836.091753)">
                        <g transform="matrix(0.671341,0,0,1,129.136273,268.27496)">
                            <rect x="375.805" y="-268.275" width="57.6" height="207.085" style="fill:rgb(233,215,188);"/>
                        </g>
                        <g transform="matrix(0.671341,0,0,1,167.805434,268.27496)">
                            <rect x="375.805" y="-268.275" width="57.6" height="207.085" style="fill:rgb(141,29,27);"/>
                        </g>
                        <g transform="matrix(0.671341,0,0,1,206.474596,268.27496)">
                            <rect x="375.805" y="-268.275" width="57.6" height="207.085" style="fill:rgb(233,215,188);"/>
                        </g>
                        <g transform="matrix(0.671341,0,0,1,245.143757,268.27496)">
                            <rect x="375.805" y="-268.275" width="57.6" height="207.085" style="fill:rgb(141,29,27);"/>
                        </g>
                        <g transform="matrix(0.671341,0,0,1,283.812919,268.27496)">
                            <rect x="375.805" y="-268.275" width="57.6" height="207.085" style="fill:rgb(233,215,188);"/>
                        </g>
                        <g transform="matrix(0.671341,0,0,1,322.482081,268.27496)">
                            <rect x="375.805" y="-268.275" width="57.6" height="207.085" style="fill:rgb(158,49,46);"/>
                        </g>
                        <g transform="matrix(0.671341,0,0,1,361.151242,268.27496)">
                            <rect x="375.805" y="-268.275" width="57.6" height="207.085" style="fill:rgb(233,215,188);"/>
                        </g>
                        <g transform="matrix(0.671341,0,0,1,399.820404,268.27496)">
                            <rect x="375.805" y="-268.275" width="57.6" height="207.085" style="fill:rgb(158,49,46);"/>
                        </g>
                        <g transform="matrix(0.671341,0,0,1,438.489565,268.27496)">
                            <rect x="375.805" y="-268.275" width="57.6" height="207.085" style="fill:rgb(233,215,188);"/>
                        </g>
                        <g transform="matrix(0.671341,0,0,1,477.158727,268.27496)">
                            <rect x="375.805" y="-268.275" width="57.6" height="207.085" style="fill:rgb(158,49,46);"/>
                        </g>
                        <g transform="matrix(0.671341,0,0,1,515.827889,268.27496)">
                            <rect x="375.805" y="-268.275" width="57.6" height="207.085" style="fill:rgb(233,215,188);"/>
                        </g>
                        <g transform="matrix(0.671341,0,0,1,554.49705,268.27496)">
                            <rect x="375.805" y="-268.275" width="57.6" height="207.085" style="fill:rgb(158,49,46);"/>
                        </g>
                        <g transform="matrix(0.671341,0,0,1,593.194283,268.27496)">
                            <rect x="375.805" y="-268.275" width="57.6" height="207.085" style="fill:rgb(233,215,188);"/>
                        </g>
                        <g transform="matrix(0.671341,0,0,1,631.863445,268.27496)">
                            <rect x="375.805" y="-268.275" width="57.6" height="207.085" style="fill:rgb(158,49,46);"/>
                        </g>
                        <g transform="matrix(0.671341,0,0,1,670.532606,268.27496)">
                            <rect x="375.805" y="-268.275" width="57.6" height="207.085" style="fill:rgb(233,215,188);"/>
                        </g>
                        <g transform="matrix(0.671341,0,0,1,709.201768,268.27496)">
                            <rect x="375.805" y="-268.275" width="57.6" height="207.085" style="fill:rgb(158,49,46);"/>
                        </g>
                        <g transform="matrix(0.671341,0,0,1,747.870929,268.27496)">
                            <rect x="375.805" y="-268.275" width="57.6" height="207.085" style="fill:rgb(233,215,188);"/>
                        </g>
                        <g transform="matrix(0.671341,0,0,1,786.540091,268.27496)">
                            <rect x="375.805" y="-268.275" width="57.6" height="207.085" style="fill:rgb(158,49,46);"/>
                        </g>
                        <g transform="matrix(0.671341,0,0,1,825.209253,268.27496)">
                            <rect x="375.805" y="-268.275" width="57.6" height="207.085" style="fill:rgb(233,215,188);"/>
                        </g>
                        <g transform="matrix(0.671341,0,0,1,863.878414,268.27496)">
                            <rect x="375.805" y="-268.275" width="57.6" height="207.085" style="fill:rgb(141,29,27);"/>
                        </g>
                        <g transform="matrix(0.671341,0,0,1,902.547576,268.27496)">
                            <rect x="375.805" y="-268.275" width="57.6" height="207.085" style="fill:rgb(233,215,188);"/>
                        </g>
                        <g transform="matrix(0.671341,0,0,1,941.216738,268.27496)">
                            <rect x="375.805" y="-268.275" width="57.6" height="207.085" style="fill:rgb(141,29,27);"/>
                        </g>
                        <g transform="matrix(0.671341,0,0,1,979.885899,268.27496)">
                            <rect x="375.805" y="-268.275" width="57.6" height="207.085" style="fill:rgb(233,215,188);"/>
                        </g>
                    </g>
                    <g transform="matrix(1.102347,0,0,1.111204,-28.387636,-90.252512)">
                        <path d="M242.961,830.45L957.594,830.45" style="fill:none;stroke:rgb(233,215,188);stroke-width:8.67px;"/>
                    </g>
                </g>
            </g>
            <path d="M633.245,92.226C899.295,92.226 1115.293,308.224 1115.293,574.274C1115.293,840.323 899.295,1056.322 633.245,1056.322C367.196,1056.322 151.197,840.323 151.197,574.274C151.197,308.224 367.196,92.226 633.245,92.226ZM633.245,101.486C372.306,101.486 160.457,313.335 160.457,574.274C160.457,835.213 372.306,1047.062 633.245,1047.062C894.184,1047.062 1106.033,835.213 1106.033,574.274C1106.033,313.335 894.184,101.486 633.245,101.486Z" style="fill:rgb(233,215,188);"/>
        </g>
        <g transform="matrix(0.968817,0,0,0.968817,-13.498782,43.633752)">
            <path d="M178.676,442.774L175.739,441.804L177.547,433.396L177.805,432.614L181.615,433.872L178.676,442.774ZM180.252,438.001C177.565,437.017 174.823,436.056 172.026,435.117C169.228,434.176 166.427,433.244 163.625,432.319L161.529,431.627C158.756,430.711 155.959,429.796 153.137,428.882C150.316,427.966 147.489,427.089 144.658,426.251L147.349,418.102C150.049,419.09 152.804,420.06 155.614,421.011C158.423,421.963 161.222,422.899 164.01,423.819L165.908,424.446C168.798,425.4 171.655,426.331 174.48,427.239C177.304,428.147 180.125,429.018 182.942,429.851L180.252,438.001ZM149.528,424.147L145.975,431.979L143.083,431.025L146.021,422.123L149.786,423.365L149.528,424.147ZM181.615,433.872L178.416,432.816L180.514,426.459C181.594,423.187 181.826,420.543 181.211,418.528C180.595,416.511 179.191,415.141 176.999,414.418C174.602,413.627 172.586,413.844 170.949,415.069C169.313,416.294 167.93,418.614 166.803,422.03L164.733,428.299L161.598,427.264L163.603,421.19C164.26,419.198 164.582,417.506 164.566,416.114C164.551,414.723 164.172,413.578 163.429,412.681C162.686,411.783 161.567,411.086 160.07,410.592C157.787,409.839 155.999,409.958 154.706,410.95C153.412,411.942 152.351,413.694 151.521,416.208L149.22,423.178L146.021,422.123L149.054,412.935C150.026,409.99 151.207,407.669 152.597,405.971C153.987,404.272 155.486,403.157 157.096,402.626C158.705,402.093 160.345,402.103 162.015,402.654C163.366,403.1 164.514,403.866 165.461,404.951C166.407,406.036 167.019,407.526 167.296,409.42C167.572,411.314 167.418,413.733 166.833,416.677L166.303,416.599C167.608,413.474 168.992,411.075 170.455,409.401C171.918,407.727 173.43,406.649 174.99,406.166C176.55,405.683 178.128,405.705 179.724,406.232C180.871,406.611 181.938,407.273 182.922,408.218C183.906,409.163 184.674,410.435 185.225,412.033C185.776,413.631 185.99,415.617 185.868,417.989C185.744,420.362 185.149,423.165 184.081,426.399L181.615,433.872Z" style="fill:rgb(232,213,188);fill-rule:nonzero;"/>
            <path d="M203.56,379.218C202.324,381.932 200.752,384.127 198.845,385.803C196.939,387.479 194.707,388.457 192.151,388.737C189.595,389.017 186.696,388.418 183.454,386.941C183.454,386.941 174.379,382.806 172.632,382.01C170.885,381.214 169.137,380.431 167.388,379.659C165.639,378.887 163.889,378.136 162.139,377.405L165.735,369.512C167.386,370.315 169.068,371.132 170.782,371.963C172.495,372.794 174.232,373.611 175.993,374.413C177.754,375.215 184.978,378.507 184.978,378.507C187.749,379.77 190.084,380.439 191.983,380.514C193.882,380.588 195.454,380.144 196.699,379.182C197.944,378.219 198.97,376.854 199.775,375.087C200.606,373.262 200.94,371.543 200.775,369.93C200.611,368.316 199.835,366.79 198.448,365.351C197.061,363.912 194.968,362.554 192.169,361.279L173.396,352.7L174.972,349.241L194.51,358.093C198.288,359.797 201.042,361.766 202.772,364C204.501,366.233 205.38,368.636 205.409,371.21C205.436,373.783 204.82,376.453 203.56,379.218ZM162.989,382.886L160.217,381.623L168.039,364.457L170.811,365.72L168.082,373.923L167.427,375.361L162.989,382.886ZM173.779,359.205L171.007,357.942L177.103,344.564L179.875,345.827L177.766,352.177L177.139,353.553L173.779,359.205Z" style="fill:rgb(232,213,188);fill-rule:nonzero;"/>
            <path d="M217.715,347.905L215.062,346.314L218.672,338.508L219.496,337.134L224.657,330.312L227.31,331.903L217.715,347.905ZM220.3,343.594C217.908,342.052 215.45,340.516 212.927,338.986C210.403,337.454 207.876,335.93 205.345,334.412L203.297,333.184C200.805,331.689 198.3,330.196 195.78,328.704C193.261,327.211 190.719,325.749 188.154,324.317L192.568,316.957C195.012,318.53 197.454,320.061 199.895,321.551C202.335,323.042 204.874,324.577 207.51,326.158L209.183,327.161C211.859,328.766 214.475,330.321 217.031,331.827C219.588,333.334 222.148,334.802 224.713,336.233L220.3,343.594ZM193.366,323.333L188.181,330.195L185.569,328.628L190.39,320.588L193.79,322.627L193.366,323.333ZM234.99,320.565C234.213,321.861 233.417,322.892 232.601,323.659C231.787,324.425 230.913,324.889 229.979,325.05C229.046,325.211 227.993,325.083 226.819,324.665L219.285,322.131C217.888,321.634 216.723,321.436 215.789,321.537C214.855,321.637 214.014,322.021 213.266,322.689C212.519,323.357 211.779,324.301 211.047,325.522L207.784,330.965L204.973,329.279L208.724,323.024C209.81,321.214 210.415,319.602 210.541,318.187C210.668,316.772 210.427,315.553 209.819,314.528C209.212,313.503 208.357,312.66 207.254,311.999C205.326,310.842 203.547,310.552 201.918,311.127C200.289,311.701 198.77,313.163 197.362,315.513L193.279,322.321L190.39,320.588L195.104,312.727C197.589,308.584 200.236,305.826 203.047,304.455C205.859,303.082 208.563,303.175 211.16,304.732C212.393,305.472 213.379,306.571 214.118,308.031C214.857,309.49 215.138,311.289 214.961,313.428C214.784,315.567 213.978,318.04 212.544,320.848L212.186,320.42C213.138,318.982 214.084,317.829 215.023,316.96C215.962,316.092 216.941,315.478 217.958,315.118C218.976,314.757 220.076,314.609 221.256,314.676C222.437,314.741 223.754,315.004 225.207,315.465L233.577,317.964L229.844,319.882L234.574,313.775L237.227,315.366C237.01,316.053 236.805,316.663 236.609,317.196C236.415,317.729 236.198,318.253 235.959,318.77C235.722,319.286 235.399,319.884 234.99,320.565Z" style="fill:rgb(232,213,188);fill-rule:nonzero;"/>
            <path d="M244.316,305.03L241.837,303.18L246.216,295.778L246.708,295.118L249.923,297.517L244.316,305.03ZM247.323,301.001C245.098,299.227 242.808,297.451 240.452,295.674C238.096,293.896 235.735,292.124 233.37,290.359L231.456,288.931C229.127,287.193 226.785,285.454 224.429,283.716C222.073,281.977 219.691,280.266 217.284,278.583L222.458,271.65C224.682,273.425 226.958,275.195 229.285,276.96C231.612,278.725 233.921,280.463 236.212,282.172L238.107,283.587C240.534,285.398 242.938,287.178 245.317,288.925C247.696,290.671 250.089,292.386 252.497,294.068L247.323,301.001ZM222.569,278.13L216.718,284.433L214.277,282.612L219.884,275.099L223.061,277.47L222.569,278.13ZM249.923,297.517L247.149,295.446L258.044,280.847L258.115,281.902L252.989,276.528L255.823,272.729L263.641,279.135L249.923,297.517ZM235.822,286.993L233.067,284.937L241.257,273.963L244.012,276.018L235.822,286.993ZM247.117,279.768L241.629,276.875L240.784,276.244L236.724,272.012L238.752,269.294L249.145,277.051L247.117,279.768ZM238.434,267.239L231.8,263.808L232.832,263.576L222.677,277.183L219.884,275.099L232.82,257.765L241.282,263.422L238.434,267.239Z" style="fill:rgb(232,213,188);fill-rule:nonzero;"/>
            <path d="M270.931,270.008L268.649,267.919L272.287,262.516L273.109,261.618L278.081,257.613L280.363,259.701L270.931,270.008ZM273.487,267.215L255.283,231.312L258.821,227.445L296.039,242.57L290.308,248.833L259.624,235.966L260.553,234.951L261.015,235.84L275.838,264.646L273.487,267.215ZM269.639,254.864L267.086,252.528L279.27,239.215L281.822,241.55L269.639,254.864ZM285.846,253.709L283.665,251.714L287.864,245.664L289.712,243.644L295.72,238.541L297.9,240.536L285.846,253.709Z" style="fill:rgb(232,213,188);fill-rule:nonzero;"/>
            <path d="M319.999,221.549C317.77,223.529 315.444,224.899 313.021,225.659C310.599,226.419 308.163,226.41 305.712,225.63C303.262,224.851 300.854,223.129 298.488,220.465C298.488,220.465 291.866,213.009 290.591,211.574C289.317,210.138 288.036,208.714 286.749,207.299C285.463,205.885 284.167,204.49 282.863,203.113L289.348,197.353C290.532,198.755 291.739,200.184 292.969,201.638C294.199,203.092 295.457,204.542 296.742,205.989C298.026,207.436 303.298,213.372 303.298,213.372C305.32,215.648 307.184,217.206 308.889,218.043C310.596,218.881 312.213,219.112 313.741,218.736C315.27,218.36 316.76,217.527 318.212,216.238C319.711,214.907 320.712,213.47 321.215,211.929C321.719,210.386 321.628,208.677 320.943,206.8C320.257,204.922 318.893,202.833 316.851,200.533L303.162,185.085L306.005,182.56L320.282,198.569C323.046,201.657 324.766,204.573 325.443,207.315C326.12,210.057 325.95,212.61 324.933,214.975C323.916,217.339 322.272,219.531 319.999,221.549ZM281.42,208.468L279.397,206.19L293.502,193.664L295.525,195.941L289.707,202.336L288.525,203.386L281.42,208.468ZM300.878,191.187L298.855,188.91L309.847,179.148L311.87,181.425L307.369,186.377L306.239,187.381L300.878,191.187Z" style="fill:rgb(232,213,188);fill-rule:nonzero;"/>
            <path d="M362.704,187.748C360.252,189.498 357.724,190.754 355.12,191.514C352.516,192.273 349.948,192.505 347.416,192.208C344.884,191.911 342.486,191.077 340.221,189.707C337.956,188.337 335.931,186.402 334.146,183.902C332.379,181.428 331.237,178.882 330.719,176.264C330.202,173.646 330.234,171.076 330.818,168.555C331.401,166.032 332.473,163.653 334.034,161.419C335.595,159.185 337.564,157.219 339.94,155.522C341.48,154.422 343.189,153.437 345.066,152.565C346.943,151.693 349.011,151.1 351.268,150.787L356.428,157.5L352.68,160.177L346.471,154.322L350.279,152.59L352.587,155.822C350.391,155.51 348.508,155.553 346.938,155.95C345.369,156.347 344.031,156.941 342.924,157.731C341.019,159.092 339.584,160.822 338.619,162.921C337.655,165.019 337.372,167.401 337.772,170.066C338.172,172.732 339.451,175.576 341.61,178.599C343.743,181.585 345.973,183.727 348.3,185.025C350.628,186.323 352.912,186.883 355.152,186.703C357.392,186.522 359.478,185.742 361.408,184.363C362.728,183.421 363.919,182.199 364.982,180.699C366.044,179.198 366.857,177.474 367.422,175.527L369.543,178.496L366.682,181.557L363.096,173.772L366.843,171.095L371.488,178.15C370.545,179.858 369.336,181.533 367.862,183.177C366.387,184.822 364.668,186.345 362.704,187.748Z" style="fill:rgb(232,213,188);fill-rule:nonzero;"/>
            <path d="M384.956,171.494L383.436,168.8L390.433,163.799L391.829,163.012L399.687,159.634L401.207,162.328L384.956,171.494ZM389.334,169.025C388.017,166.502 386.64,163.952 385.203,161.375C383.767,158.796 382.323,156.221 380.874,153.651L379.701,151.571C378.273,149.04 376.833,146.503 375.381,143.96C373.929,141.417 372.442,138.89 370.92,136.378L378.395,132.161C379.742,134.737 381.108,137.276 382.493,139.777C383.878,142.279 385.325,144.869 386.836,147.546L387.794,149.245C389.327,151.963 390.832,154.608 392.309,157.181C393.787,159.754 395.287,162.296 396.809,164.809L389.334,169.025ZM375.937,138.099L368.038,141.5L366.542,138.847L374.707,134.242L376.655,137.694L375.937,138.099ZM413.488,156.269C412.172,157.011 410.97,157.514 409.882,157.777C408.795,158.04 407.806,158.011 406.915,157.69C406.024,157.369 405.172,156.737 404.358,155.793L399.062,149.867C398.093,148.744 397.178,147.996 396.317,147.622C395.455,147.247 394.534,147.165 393.554,147.377C392.574,147.588 391.464,148.043 390.225,148.742L384.697,151.86L383.087,149.005L389.441,145.422C391.279,144.385 392.602,143.283 393.411,142.116C394.22,140.948 394.614,139.769 394.592,138.578C394.571,137.387 394.245,136.231 393.613,135.111C392.508,133.153 391.106,132.021 389.405,131.716C387.705,131.41 385.662,131.93 383.276,133.276L376.362,137.176L374.707,134.242L382.691,129.738C386.899,127.365 390.563,126.277 393.685,126.474C396.807,126.671 399.112,128.088 400.6,130.726C401.306,131.978 401.62,133.421 401.541,135.055C401.462,136.689 400.817,138.392 399.605,140.164C398.394,141.936 396.471,143.687 393.836,145.419L393.737,144.87C395.275,144.09 396.667,143.555 397.913,143.265C399.159,142.974 400.313,142.924 401.376,143.114C402.439,143.304 403.467,143.719 404.461,144.36C405.455,145.001 406.47,145.881 407.505,146.999L413.546,153.31L409.352,153.131L416.482,150.161L418.002,152.855C417.475,153.345 416.994,153.774 416.561,154.141C416.128,154.507 415.681,154.856 415.218,155.187C414.756,155.518 414.18,155.879 413.488,156.269Z" style="fill:rgb(232,213,188);fill-rule:nonzero;"/>
            <path d="M427.323,148.162L426.093,145.324L431.622,141.879L432.739,141.395L438.913,139.77L440.142,142.608L427.323,148.162ZM430.797,146.657L428.85,106.451L433.659,104.367L461.45,133.378L453.66,136.752L430.911,112.472L432.174,111.925L432.232,112.925L433.992,145.273L430.797,146.657ZM432.33,133.813L430.955,130.638L447.515,123.463L448.89,126.638L432.33,133.813ZM447.595,139.38L446.42,136.668L452.724,132.861L455.237,131.772L462.804,129.569L463.979,132.282L447.595,139.38Z" style="fill:rgb(232,213,188);fill-rule:nonzero;"/>
            <path d="M479.468,126.987L478.523,124.042L486.715,120.451L488.587,119.85L497.425,117.98L498.37,120.926L479.468,126.987ZM484.779,125.284C483.998,122.548 483.168,119.771 482.289,116.954C481.409,114.136 480.519,111.322 479.618,108.512L478.888,106.238C478.001,103.471 477.099,100.697 476.183,97.915C475.267,95.134 474.317,92.36 473.334,89.592L481.592,86.944C482.373,89.68 483.201,92.45 484.076,95.252C484.95,98.055 485.843,100.876 486.754,103.716L487.483,105.99C488.37,108.756 489.272,111.53 490.188,114.312C491.104,117.093 492.054,119.868 493.038,122.636L484.779,125.284ZM463.754,103.599L460.926,93.571L494.021,82.958L497.531,92.768L493.039,94.208L488.37,84.77L492.944,86.963L464.108,96.21L466.577,91.759L468.267,102.152L463.754,103.599Z" style="fill:rgb(232,213,188);fill-rule:nonzero;"/>
            <path d="M541.991,110.03L541.499,106.976L549.796,104.71L551.826,104.383L560.301,103.948L560.793,107.002L541.991,110.03ZM546.954,109.231C546.592,106.408 546.184,103.539 545.73,100.623C545.276,97.706 544.815,94.791 544.346,91.877L543.966,89.52C543.504,86.651 543.032,83.772 542.551,80.884C542.071,77.995 541.552,75.109 540.994,72.225L549.535,70.85C549.897,73.672 550.299,76.527 550.741,79.415C551.182,82.301 551.63,85.156 552.085,87.978L552.461,90.313C552.942,93.303 553.429,96.254 553.921,99.164C554.413,102.074 554.937,104.971 555.495,107.855L546.954,109.231ZM545.104,75.578L536.516,76.031L536.032,73.024L545.287,71.534L545.918,75.447L545.104,75.578ZM548.449,91.167L547.903,87.774L561.763,85.542L562.309,88.935L548.449,91.167ZM562.086,94.483L560.161,88.587L559.88,86.842L559.912,80.978L563.282,80.436L565.457,93.94L562.086,94.483ZM564.301,78.768L561.881,71.694L562.783,72.246L545.841,74.974L545.287,71.534L566.82,68.066L568.911,78.025L564.301,78.768Z" style="fill:rgb(232,213,188);fill-rule:nonzero;"/>
            <path d="M606.391,103.201C603.949,103.338 601.568,103.063 599.247,102.375C596.928,101.685 594.806,100.576 592.882,99.046C590.958,97.515 589.393,95.547 588.185,93.142C586.978,90.736 586.282,87.884 586.096,84.586C585.915,81.38 586.294,78.521 587.231,76.01C588.17,73.499 589.504,71.36 591.235,69.594C592.965,67.826 594.951,66.455 597.193,65.478C599.435,64.501 601.761,63.945 604.172,63.809C606.583,63.673 608.948,63.95 611.268,64.639C613.589,65.328 615.699,66.438 617.599,67.97C619.501,69.502 621.059,71.471 622.273,73.876C623.488,76.281 624.189,79.132 624.374,82.43C624.555,85.636 624.18,88.494 623.25,91.004C622.319,93.515 620.993,95.654 619.27,97.421C617.547,99.188 615.573,100.559 613.346,101.534C611.12,102.51 608.802,103.065 606.391,103.201ZM606.192,99.677C608.026,99.573 609.553,99.051 610.773,98.108C611.993,97.166 612.949,95.905 613.642,94.326C614.335,92.747 614.81,90.978 615.067,89.018C615.325,87.058 615.395,85.033 615.278,82.943C615.158,80.821 614.861,78.809 614.385,76.906C613.911,75.003 613.241,73.314 612.376,71.838C611.511,70.362 610.419,69.221 609.101,68.414C607.782,67.607 606.206,67.255 604.372,67.358C602.568,67.46 601.056,67.986 599.837,68.936C598.618,69.885 597.654,71.143 596.944,72.708C596.235,74.272 595.751,76.026 595.492,77.97C595.234,79.915 595.164,81.947 595.284,84.069C595.402,86.159 595.698,88.164 596.174,90.083C596.65,92.001 597.329,93.705 598.211,95.195C599.092,96.685 600.192,97.83 601.509,98.63C602.827,99.429 604.388,99.778 606.192,99.677Z" style="fill:rgb(232,213,188);fill-rule:nonzero;"/>
            <path d="M660.192,103.206C657.75,103.069 655.415,102.528 653.187,101.583C650.959,100.638 648.975,99.297 647.235,97.56C645.496,95.823 644.161,93.692 643.232,91.166C642.302,88.64 641.93,85.728 642.116,82.43C642.296,79.224 642.994,76.426 644.207,74.036C645.422,71.646 646.988,69.671 648.906,68.11C650.824,66.548 652.951,65.408 655.288,64.689C657.625,63.97 660,63.679 662.411,63.814C664.822,63.95 667.141,64.491 669.369,65.436C671.597,66.381 673.569,67.721 675.286,69.457C677.003,71.192 678.33,73.324 679.267,75.85C680.204,78.376 680.58,81.288 680.394,84.586C680.214,87.792 679.52,90.589 678.314,92.98C677.107,95.37 675.549,97.346 673.639,98.909C671.729,100.471 669.613,101.612 667.291,102.331C664.969,103.05 662.603,103.342 660.192,103.206ZM660.391,99.682C662.225,99.785 663.801,99.437 665.119,98.638C666.437,97.838 667.529,96.693 668.394,95.202C669.26,93.71 669.931,92.006 670.407,90.088C670.883,88.169 671.18,86.164 671.298,84.074C671.417,81.953 671.347,79.92 671.089,77.975C670.831,76.031 670.355,74.277 669.661,72.714C668.967,71.15 668.011,69.893 666.791,68.944C665.572,67.993 664.045,67.467 662.211,67.363C660.407,67.262 658.845,67.615 657.527,68.422C656.209,69.229 655.11,70.37 654.229,71.845C653.349,73.319 652.671,75.008 652.195,76.911C651.72,78.814 651.423,80.827 651.304,82.948C651.186,85.038 651.256,87.063 651.513,89.024C651.771,90.983 652.254,92.753 652.963,94.332C653.672,95.912 654.635,97.173 655.855,98.116C657.074,99.058 658.586,99.58 660.391,99.682Z" style="fill:rgb(232,213,188);fill-rule:nonzero;"/>
            <path d="M700.547,106.143L701.048,103.091L709.976,103.627L711.916,103.945L720.636,106.308L720.134,109.361L700.547,106.143ZM706.051,107.047C706.602,104.256 707.129,101.406 707.63,98.497C708.131,95.588 708.621,92.678 709.099,89.766L709.486,87.409C709.957,84.542 710.419,81.662 710.871,78.768C711.323,75.875 711.741,72.973 712.127,70.061L720.684,71.467C720.133,74.258 719.608,77.101 719.109,79.994C718.611,82.888 718.12,85.806 717.636,88.748L717.249,91.105C716.778,93.971 716.317,96.852 715.865,99.745C715.413,102.639 714.994,105.541 714.609,108.453L706.051,107.047ZM697.217,78.164L699.269,67.949L733.565,73.582L732.218,83.914L727.564,83.149L727.708,72.62L730.781,76.657L700.899,71.748L705.125,68.911L701.894,78.933L697.217,78.164Z" style="fill:rgb(232,213,188);fill-rule:nonzero;"/>
            <path d="M741.066,113.522L741.881,110.538L750.372,111.905L751.167,112.122L750.109,115.992L741.066,113.522ZM745.915,114.846C746.757,112.112 747.574,109.324 748.366,106.481C749.159,103.638 749.945,100.793 750.722,97.946L751.304,95.817C752.074,93 752.841,90.158 753.608,87.293C754.375,84.428 755.103,81.56 755.792,78.689L764.071,80.95C763.225,83.699 762.4,86.501 761.597,89.356C760.793,92.211 760.004,95.055 759.23,97.887L758.704,99.815C757.902,102.751 757.121,105.653 756.361,108.521C755.601,111.389 754.879,114.251 754.194,117.108L745.915,114.846ZM758.148,83.442L750.141,80.303L750.943,77.364L759.987,79.835L758.942,83.659L758.148,83.442ZM750.109,115.992L750.997,112.743L757.455,114.507C760.778,115.415 763.431,115.509 765.412,114.789C767.393,114.069 768.688,112.596 769.296,110.368C769.961,107.934 769.639,105.931 768.33,104.361C767.022,102.79 764.633,101.531 761.162,100.583L754.794,98.843L755.664,95.658L761.834,97.344C763.858,97.896 765.565,98.129 766.954,98.041C768.343,97.953 769.466,97.515 770.323,96.727C771.182,95.938 771.818,94.783 772.234,93.263C772.867,90.944 772.655,89.164 771.596,87.925C770.539,86.685 768.733,85.716 766.18,85.018L759.099,83.084L759.987,79.835L769.32,82.384C772.312,83.201 774.691,84.26 776.459,85.559C778.228,86.858 779.42,88.298 780.034,89.878C780.65,91.457 780.726,93.095 780.262,94.792C779.888,96.164 779.183,97.35 778.148,98.353C777.114,99.354 775.658,100.042 773.781,100.418C771.904,100.793 769.481,100.765 766.51,100.334L766.56,99.8C769.749,100.941 772.217,102.198 773.965,103.572C775.713,104.945 776.868,106.399 777.432,107.932C777.996,109.464 778.056,111.041 777.613,112.663C777.295,113.828 776.689,114.928 775.796,115.96C774.904,116.992 773.674,117.825 772.106,118.459C770.539,119.093 768.568,119.41 766.192,119.411C763.816,119.412 760.986,118.963 757.701,118.066L750.109,115.992Z" style="fill:rgb(232,213,188);fill-rule:nonzero;"/>
            <path d="M784.707,125.859L785.822,122.974L792.179,124.396L793.314,124.835L798.855,128.007L797.74,130.893L784.707,125.859ZM788.239,127.223L815.053,97.2L819.942,99.089L819.402,139.259L811.482,136.2L812.299,102.938L813.582,103.434L812.923,104.188L791.488,128.478L788.239,127.223ZM798.342,119.144L799.588,115.916L816.423,122.418L815.177,125.646L798.342,119.144ZM805.317,133.819L806.382,131.062L813.545,132.77L816.099,133.757L823.038,137.495L821.973,140.252L805.317,133.819Z" style="fill:rgb(232,213,188);fill-rule:nonzero;"/>
            <path d="M833.686,145.718L835.094,142.964L843.106,146.027L843.859,146.412L842.034,149.984L833.686,145.718ZM838.162,148.006C839.566,145.46 840.932,142.904 842.261,140.338C843.59,137.771 844.877,135.27 846.122,132.834L847.398,130.338C848.748,127.696 850.082,125.068 851.401,122.453C852.72,119.839 853.993,117.23 855.219,114.629L862.923,118.566C861.533,121.084 860.16,123.645 858.803,126.249C857.447,128.853 856.097,131.469 854.754,134.097L853.313,136.917C852.157,139.177 850.934,141.597 849.642,144.174C848.351,146.752 847.092,149.341 845.865,151.942L838.162,148.006ZM856.554,119.763L849.357,115.054L850.743,112.342L867.539,120.925L866.153,123.638L858.102,120.554L856.554,119.763ZM842.034,149.984L843.63,146.86L858.664,154.543L857.615,154.78L862.999,148.231L867.222,150.388L861.516,159.941L842.034,149.984Z" style="fill:rgb(232,213,188);fill-rule:nonzero;"/>
            <path d="M874.38,167.287L876.049,164.683L883.725,168.511L884.437,168.968L882.273,172.345L874.38,167.287ZM878.612,169.999C880.257,167.602 881.866,165.191 883.437,162.767C885.01,160.342 886.534,157.978 888.011,155.674L889.523,153.314C891.124,150.816 892.707,148.33 894.274,145.856C895.842,143.382 897.362,140.911 898.836,138.441L906.12,143.109C904.491,145.479 902.876,147.894 901.272,150.354C899.669,152.814 898.071,155.286 896.478,157.771L894.77,160.437C893.4,162.575 891.947,164.863 890.411,167.303C888.874,169.743 887.37,172.197 885.896,174.667L878.612,169.999ZM899.664,143.68L892.96,138.294L894.604,135.729L910.485,145.906L908.841,148.471L901.128,144.618L899.664,143.68ZM882.273,172.345L884.166,169.391L898.38,178.501L897.314,178.634L903.31,172.64L907.302,175.198L900.694,184.15L882.273,172.345Z" style="fill:rgb(232,213,188);fill-rule:nonzero;"/>
            <path d="M932.006,207.594L934.041,205.264L941.068,210.183L941.705,210.74L939.066,213.761L932.006,207.594ZM935.791,210.901C937.772,208.773 939.719,206.625 941.631,204.459C943.544,202.293 945.401,200.18 947.201,198.119L949.045,196.008C950.997,193.774 952.93,191.549 954.844,189.333C956.76,187.118 958.628,184.897 960.45,182.672L966.965,188.363C965.005,190.468 963.051,192.618 961.102,194.814C959.153,197.01 957.208,199.22 955.266,201.443L953.183,203.827C951.513,205.739 949.738,207.789 947.858,209.975C945.979,212.161 944.128,214.367 942.306,216.592L935.791,210.901ZM960.497,187.976L954.661,181.659L956.665,179.365L970.87,191.774L968.866,194.068L961.806,189.12L960.497,187.976ZM939.066,213.761L941.374,211.119L954.089,222.226L953.014,222.201L959.829,217.157L963.4,220.276L955.543,228.155L939.066,213.761Z" style="fill:rgb(232,213,188);fill-rule:nonzero;"/>
            <path d="M966.386,238.529L968.639,236.41L975.167,242.009L975.731,242.609L972.81,245.357L966.386,238.529ZM969.83,242.19C971.965,240.308 974.112,238.362 976.272,236.351C978.432,234.34 980.587,232.323 982.737,230.301L984.476,228.665C986.593,226.674 988.712,224.669 990.834,222.651C992.956,220.634 995.055,218.586 997.131,216.507L1003.058,222.808C1000.924,224.691 998.785,226.624 996.642,228.609C994.499,230.593 992.387,232.564 990.305,234.523L988.582,236.144C986.376,238.219 984.206,240.276 982.072,242.315C979.938,244.354 977.833,246.413 975.758,248.491L969.83,242.19ZM996.658,221.791L991.468,214.933L993.687,212.846L1000.11,219.674L997.223,222.391L996.658,221.791ZM972.81,245.357L975.331,242.985L987.813,256.253L986.762,256.14L992.946,252.026L996.193,255.478L988.525,262.063L972.81,245.357ZM985.625,233.301L988.129,230.945L997.512,240.919L995.008,243.275L985.625,233.301ZM990.776,245.68L994.579,240.779L995.348,240.056L1000.221,236.794L1002.545,239.264L993.099,248.15L990.776,245.68ZM1004.624,239.308L1009.156,233.372L1009.206,234.428L997.572,222.062L1000.11,219.674L1014.93,235.428L1007.887,242.776L1004.624,239.308Z" style="fill:rgb(232,213,188);fill-rule:nonzero;"/>
            <path d="M996.241,270.819L998.694,268.935L1003.383,273.458L1004.124,274.423L1007.204,280.015L1004.751,281.899L996.241,270.819ZM998.547,273.822L1037.068,262.136L1040.26,266.293L1018.896,300.315L1013.724,293.582L1031.73,265.603L1032.568,266.694L1031.613,266.995L1000.668,276.583L998.547,273.822ZM1011.379,272.179L1014.123,270.072L1025.116,284.384L1022.372,286.492L1011.379,272.179ZM1009.699,288.341L1012.043,286.54L1017.27,291.726L1018.939,293.898L1022.919,300.701L1020.575,302.501L1009.699,288.341Z" style="fill:rgb(232,213,188);fill-rule:nonzero;"/>
            <path d="M1037.106,330.317C1035.488,327.669 1034.417,325.014 1033.892,322.352C1033.368,319.689 1033.375,317.105 1033.914,314.598C1034.453,312.092 1035.494,309.777 1037.036,307.652C1038.578,305.528 1040.595,303.705 1043.086,302.183C1045.526,300.692 1048.025,299.738 1050.584,299.322C1053.143,298.905 1055.657,299.031 1058.126,299.699C1060.595,300.367 1062.936,301.579 1065.147,303.336C1067.36,305.092 1069.334,307.392 1071.071,310.235C1072.228,312.129 1073.17,314.044 1073.897,315.982C1074.625,317.92 1075.072,319.877 1075.24,321.853L1068.075,326.578L1065.651,322.61L1071.981,316.78L1073.384,320.842L1070.23,322.769C1070.545,320.73 1070.541,318.895 1070.217,317.263C1069.894,315.632 1069.32,314.144 1068.498,312.798C1067.245,310.747 1065.591,309.176 1063.534,308.084C1061.477,306.992 1059.124,306.565 1056.473,306.804C1053.823,307.042 1050.952,308.107 1047.86,309.996C1044.768,311.885 1042.488,313.937 1041.018,316.152C1039.549,318.367 1038.843,320.65 1038.898,323.001C1038.954,325.352 1039.677,327.665 1041.066,329.937C1041.847,331.217 1042.688,332.264 1043.588,333.077C1044.488,333.891 1045.653,334.793 1047.082,335.784L1041.682,334.285L1044.988,332.265C1046.905,331.093 1048.804,329.92 1050.684,328.744C1052.564,327.568 1054.441,326.372 1056.313,325.156L1060.681,332.305C1058.714,333.454 1056.755,334.596 1054.806,335.733C1052.858,336.87 1050.951,338.008 1049.087,339.147L1047.09,340.367C1045.15,339.098 1043.352,337.679 1041.695,336.111C1040.038,334.544 1038.508,332.613 1037.106,330.317ZM1050.702,321.728L1053.263,320.163L1062.404,335.125L1059.843,336.689L1055.429,331.002L1054.06,328.762L1050.702,321.728Z" style="fill:rgb(232,213,188);fill-rule:nonzero;"/>
            <path d="M1060.39,373.731C1059.121,371.033 1058.465,368.414 1058.42,365.876C1058.376,363.338 1059.074,361.003 1060.514,358.873C1061.955,356.743 1064.287,354.92 1067.512,353.404C1067.512,353.404 1076.536,349.16 1078.273,348.344C1080.01,347.527 1081.739,346.701 1083.459,345.867C1085.179,345.033 1086.884,344.185 1088.574,343.323L1092.265,351.172C1090.585,351.911 1088.873,352.665 1087.131,353.434C1085.389,354.202 1083.642,354.998 1081.891,355.822C1080.14,356.645 1072.956,360.023 1072.956,360.023C1070.2,361.319 1068.179,362.667 1066.894,364.066C1065.608,365.466 1064.929,366.951 1064.857,368.523C1064.786,370.096 1065.163,371.761 1065.989,373.518C1066.843,375.333 1067.937,376.699 1069.274,377.618C1070.611,378.537 1072.276,378.933 1074.271,378.806C1076.266,378.68 1078.655,377.962 1081.439,376.653L1100.127,367.891L1101.744,371.331L1082.353,380.5C1078.609,382.278 1075.326,383.103 1072.503,382.977C1069.682,382.851 1067.281,381.966 1065.3,380.323C1063.32,378.679 1061.683,376.481 1060.39,373.731ZM1083.845,340.424L1086.601,339.128L1094.629,356.199L1091.872,357.495L1087.383,350.107L1086.711,348.677L1083.845,340.424ZM1094.919,363.974L1097.676,362.678L1103.931,375.982L1101.175,377.278L1097.698,371.561L1097.054,370.193L1094.919,363.974Z" style="fill:rgb(232,213,188);fill-rule:nonzero;"/>
            <path d="M1075.015,404.815L1077.939,403.807L1081.594,411.592L1081.863,412.371L1078.07,413.678L1075.015,404.815ZM1076.653,409.567C1079.372,408.727 1082.129,407.833 1084.924,406.886C1087.719,405.939 1090.512,404.984 1093.302,404.022L1095.56,403.244C1098.307,402.297 1101.062,401.339 1103.825,400.37C1106.589,399.401 1109.343,398.395 1112.089,397.352L1114.909,405.53C1112.19,406.371 1109.446,407.256 1106.677,408.186C1103.909,409.116 1101.173,410.047 1098.471,410.979L1096.234,411.749C1093.371,412.736 1090.548,413.722 1087.765,414.705C1084.983,415.689 1082.218,416.702 1079.473,417.746L1076.653,409.567ZM1109.49,401.976L1107.571,393.592L1110.451,392.6L1113.506,401.462L1109.758,402.754L1109.49,401.976ZM1078.07,413.678L1081.343,412.55L1087.28,429.772L1086.368,429.237L1093.696,428.023L1095.24,432.504L1085.545,435.362L1078.07,413.678ZM1094.705,407.944L1097.955,406.823L1102.418,419.769L1099.168,420.89L1094.705,407.944ZM1094.321,421.346L1099.801,418.438L1100.798,418.094L1106.581,417.119L1107.686,420.325L1095.426,424.552L1094.321,421.346ZM1109.565,421.219L1116.134,417.666L1115.745,418.649L1110.212,402.598L1113.506,401.462L1120.555,421.91L1111.117,425.721L1109.565,421.219Z" style="fill:rgb(232,213,188);fill-rule:nonzero;"/>
        </g>
        <g transform="matrix(0.968817,0,0,0.968817,-13.498782,43.633752)">
            <path d="M289.798,952.147L291.837,949.821L298.872,954.768L300.042,955.794L305.883,962.136L303.843,964.462L289.798,952.147ZM293.577,955.46C295.521,953.382 297.472,951.239 299.429,949.03C301.387,946.821 303.338,944.607 305.284,942.388L306.858,940.593C308.774,938.408 310.691,936.209 312.61,933.997C314.529,931.786 316.422,929.546 318.289,927.278L324.793,932.981C322.849,935.059 320.901,937.195 318.948,939.387C316.995,941.579 315.035,943.797 313.069,946.039L311.495,947.834C309.58,950.019 307.665,952.22 305.751,954.437C303.838,956.654 301.948,958.896 300.082,961.164L293.577,955.46ZM318.325,932.582L312.501,926.254L314.509,923.964L328.555,936.28L326.547,938.57L319.496,933.609L318.325,932.582Z" style="fill:rgb(232,213,188);fill-rule:nonzero;"/>
            <path d="M318.001,976.404L319.814,973.898L325.722,977.037L326.965,977.936L332.482,983.059L330.669,985.566L318.001,976.404ZM322.201,979.441L343.294,950.277L346.431,952.545L334.46,969.019L325.264,981.657L322.201,979.441ZM358.367,963.099L360.152,960.631L372.8,969.779L371.015,972.247L365.405,969.323L364.217,968.464L358.367,963.099ZM343.566,995.235L341.729,955.45L341.681,954.54L341.542,951.528L338.337,948.642L340.136,946.155L349.616,953.011L351.435,986.14L350.094,985.764L358.023,974.84L365.538,964.527L368.637,966.769L346.509,997.364L343.566,995.235Z" style="fill:rgb(232,213,188);fill-rule:nonzero;"/>
            <path d="M389.134,1023.147L390.521,1020.382L398.576,1023.395L399.313,1023.764L397.514,1027.35L389.134,1023.147ZM393.628,1025.401C394.991,1022.886 396.342,1020.313 397.678,1017.682C399.015,1015.05 400.345,1012.416 401.668,1009.778L402.658,1007.805C403.967,1005.194 405.279,1002.56 406.595,999.902C407.911,997.243 409.19,994.575 410.431,991.896L418.102,995.743C416.732,998.271 415.371,1000.856 414.021,1003.497C412.671,1006.138 411.338,1008.771 410.022,1011.395L409.125,1013.182C407.761,1015.903 406.424,1018.594 405.115,1021.256C403.805,1023.919 402.533,1026.583 401.299,1029.248L393.628,1025.401ZM411.804,997.019L404.572,992.365L405.938,989.642L414.317,993.845L412.54,997.389L411.804,997.019ZM397.514,1027.35L399.024,1024.339L405.008,1027.34C408.088,1028.884 410.67,1029.499 412.754,1029.183C414.838,1028.868 416.398,1027.678 417.433,1025.614C418.564,1023.358 418.643,1021.332 417.669,1019.534C416.695,1017.737 414.601,1016.031 411.385,1014.419L405.484,1011.459L406.964,1008.508L412.682,1011.375C414.557,1012.316 416.184,1012.88 417.563,1013.067C418.943,1013.254 420.13,1013.046 421.126,1012.442C422.122,1011.837 422.974,1010.831 423.681,1009.422C424.759,1007.273 424.901,1005.486 424.107,1004.063C423.314,1002.639 421.735,1001.334 419.369,1000.147L412.807,996.856L414.317,993.845L422.966,998.183C425.738,999.573 427.863,1001.079 429.34,1002.701C430.819,1004.323 431.704,1005.969 431.995,1007.639C432.288,1009.308 432.04,1010.929 431.251,1012.502C430.614,1013.773 429.689,1014.798 428.477,1015.577C427.266,1016.355 425.703,1016.743 423.789,1016.741C421.875,1016.74 419.504,1016.235 416.677,1015.228L416.831,1014.714C419.733,1016.461 421.905,1018.179 423.348,1019.87C424.791,1021.561 425.638,1023.213 425.889,1024.827C426.14,1026.441 425.889,1027.999 425.135,1029.501C424.593,1030.581 423.783,1031.54 422.704,1032.376C421.626,1033.213 420.257,1033.787 418.595,1034.1C416.934,1034.412 414.938,1034.335 412.609,1033.869C410.279,1033.401 407.593,1032.404 404.549,1030.878L397.514,1027.35Z" style="fill:rgb(232,213,188);fill-rule:nonzero;"/>
            <path d="M433.303,1044.64L434.402,1041.748L440.767,1043.138L441.904,1043.57L447.461,1046.714L446.362,1049.605L433.303,1044.64ZM436.841,1045.985L463.499,1015.824L468.399,1017.687L468.066,1057.859L460.131,1054.841L460.775,1021.575L462.061,1022.065L461.405,1022.822L440.097,1047.223L436.841,1045.985ZM446.902,1037.854L448.132,1034.619L465.001,1041.034L463.771,1044.268L446.902,1037.854ZM453.953,1052.492L455.004,1049.73L462.176,1051.401L464.735,1052.374L471.694,1056.076L470.643,1058.839L453.953,1052.492Z" style="fill:rgb(232,213,188);fill-rule:nonzero;"/>
            <path d="M486.81,1063.821L487.602,1060.831L496.081,1062.129L496.899,1062.345L495.871,1066.223L486.81,1063.821ZM491.668,1065.109C492.501,1062.324 493.295,1059.537 494.05,1056.747C494.806,1053.958 495.534,1051.241 496.235,1048.596L496.953,1045.886C497.713,1043.019 498.461,1040.168 499.196,1037.333C499.931,1034.498 500.623,1031.68 501.271,1028.878L509.633,1031.094C508.808,1033.849 508.008,1036.643 507.234,1039.475C506.46,1042.307 505.694,1045.15 504.938,1048.003L504.127,1051.064C503.477,1053.518 502.793,1056.141 502.077,1058.934C501.36,1061.726 500.678,1064.524 500.031,1067.326L491.668,1065.109ZM503.662,1033.613L495.632,1030.534L496.412,1027.59L514.645,1032.422L513.864,1035.367L505.343,1034.058L503.662,1033.613ZM495.871,1066.223L496.77,1062.832L513.089,1067.157L512.115,1067.611L515.99,1060.07L520.573,1061.284L517.02,1071.828L495.871,1066.223Z" style="fill:rgb(232,213,188);fill-rule:nonzero;"/>
            <path d="M535.226,1075.743L535.721,1072.69L544.286,1073.149L545.122,1073.285L544.479,1077.245L535.226,1075.743ZM540.187,1076.548C540.743,1073.695 541.26,1070.843 541.738,1067.993C542.216,1065.143 542.674,1062.367 543.113,1059.667L543.562,1056.9C544.037,1053.971 544.501,1051.061 544.954,1048.168C545.409,1045.274 545.821,1042.402 546.19,1039.55L554.73,1040.935C554.179,1043.758 553.657,1046.616 553.164,1049.511C552.671,1052.405 552.188,1055.309 551.716,1058.223L551.209,1061.348C550.802,1063.855 550.379,1066.532 549.94,1069.382C549.501,1072.231 549.096,1075.082 548.727,1077.934L540.187,1076.548ZM549.034,1044.027L540.741,1041.751L541.229,1038.745L559.847,1041.766L559.36,1044.772L550.751,1044.306L549.034,1044.027ZM544.479,1077.245L545.041,1073.782L561.706,1076.485L560.781,1077.032L563.898,1069.148L568.578,1069.907L566.076,1080.749L544.479,1077.245Z" style="fill:rgb(232,213,188);fill-rule:nonzero;"/>
            <path d="M617.27,1051.569L608.802,1050.733L608.773,1047.687L626.834,1047.511L626.864,1050.557L618.987,1051.552L617.27,1051.569ZM624.533,1085.294L612.103,1047.654L620.798,1047.57L629.246,1076.354L628.123,1076.365L628.39,1075.49L637.804,1047.405L642.074,1047.363L652.18,1076.289L651.033,1076.278L651.301,1075.496L659.65,1047.193L663.385,1047.156L652.152,1085.026L647.673,1085.069L637.135,1056.578L638.602,1056.563L638.335,1057.368L628.92,1085.251L624.533,1085.294ZM639.281,1051.355L631.358,1050.513L631.328,1047.468L649.049,1047.295L649.078,1050.341L641.474,1051.333L639.281,1051.355ZM659.755,1051.156L653.735,1050.296L653.705,1047.25L667.079,1047.12L667.108,1050.166L661.221,1051.142L659.755,1051.156Z" style="fill:rgb(232,213,188);fill-rule:nonzero;"/>
            <path d="M684.154,1082.659L683.751,1079.592L692.108,1077.566L692.925,1077.458L693.449,1081.435L684.154,1082.659ZM689.138,1082.003C688.858,1079.171 688.532,1076.291 688.162,1073.364C687.792,1070.435 687.415,1067.508 687.029,1064.582L686.718,1062.214C686.338,1059.333 685.949,1056.442 685.552,1053.541C685.154,1050.64 684.719,1047.74 684.244,1044.841L692.821,1043.712C693.102,1046.544 693.421,1049.409 693.78,1052.308C694.138,1055.206 694.504,1058.073 694.877,1060.907L695.186,1063.252C695.582,1066.254 695.983,1069.218 696.391,1072.141C696.799,1075.064 697.241,1077.975 697.715,1080.874L689.138,1082.003ZM688.256,1048.312L679.659,1048.518L679.261,1045.498L688.555,1044.274L689.073,1048.204L688.256,1048.312ZM693.449,1081.435L692.997,1078.003L711.058,1075.624L710.351,1076.412L710.625,1068.989L715.324,1068.37L716.188,1078.441L693.449,1081.435ZM691.152,1063.99L690.703,1060.582L704.279,1058.795L704.728,1062.203L691.152,1063.99ZM704.207,1067.043L702.452,1061.092L702.314,1060.047L702.514,1054.186L705.876,1053.743L707.569,1066.6L704.207,1067.043ZM707.127,1052.081L704.957,1044.935L705.843,1045.512L689.01,1047.729L688.555,1044.274L709.999,1041.45L711.848,1051.459L707.127,1052.081Z" style="fill:rgb(232,213,188);fill-rule:nonzero;"/>
            <path d="M765.235,1067.749L764.378,1064.777L772.673,1061.43L774.562,1060.886L783.452,1059.279L784.309,1062.251L765.235,1067.749ZM770.595,1066.204C769.895,1063.446 769.148,1060.646 768.352,1057.804C767.557,1054.961 766.75,1052.122 765.933,1049.286L765.271,1046.992C764.467,1044.2 763.648,1041.4 762.814,1038.593C761.981,1035.786 761.114,1032.984 760.213,1030.189L768.546,1027.786C769.246,1030.545 769.991,1033.338 770.782,1036.165C771.573,1038.993 772.382,1041.839 773.208,1044.704L773.869,1046.999C774.674,1049.79 775.493,1052.59 776.326,1055.398C777.16,1058.205 778.027,1061.006 778.928,1063.802L770.595,1066.204ZM750.222,1043.906L747.692,1033.798L781.088,1024.171L784.305,1034.081L779.773,1035.387L775.385,1025.815L779.893,1028.142L750.795,1036.53L753.395,1032.154L754.776,1042.593L750.222,1043.906Z" style="fill:rgb(232,213,188);fill-rule:nonzero;"/>
            <path d="M808.465,1054.374L807.296,1051.51L814.865,1047.427L816.348,1046.821L824.568,1044.455L825.738,1047.319L808.465,1054.374ZM813.119,1052.473C812.128,1049.806 811.082,1047.103 809.98,1044.365C808.878,1041.627 807.77,1038.891 806.654,1036.159L805.751,1033.949C804.652,1031.259 803.542,1028.561 802.42,1025.856C801.299,1023.151 800.141,1020.457 798.946,1017.774L806.891,1014.529C807.905,1017.253 808.941,1019.943 810.001,1022.599C811.061,1025.254 812.172,1028.005 813.335,1030.851L814.072,1032.657C815.252,1035.545 816.413,1038.359 817.556,1041.096C818.7,1043.834 819.869,1046.545 821.064,1049.228L813.119,1052.473ZM803.708,1020.111L795.444,1022.494L794.293,1019.674L802.971,1016.13L804.47,1019.8L803.708,1020.111ZM838.682,1042.849C837.283,1043.42 836.028,1043.768 834.915,1043.892C833.804,1044.017 832.827,1043.865 831.983,1043.434C831.139,1043.004 830.373,1042.269 829.684,1041.231L825.173,1034.687C824.353,1033.452 823.539,1032.594 822.731,1032.115C821.924,1031.635 821.02,1031.439 820.021,1031.525C819.023,1031.612 817.865,1031.924 816.547,1032.463L810.672,1034.862L809.433,1031.828L816.186,1029.07C818.139,1028.272 819.591,1027.345 820.54,1026.288C821.489,1025.232 822.027,1024.111 822.155,1022.927C822.284,1021.743 822.105,1020.555 821.619,1019.365C820.768,1017.283 819.519,1015.984 817.87,1015.468C816.222,1014.951 814.13,1015.211 811.594,1016.247L804.245,1019.248L802.971,1016.13L811.457,1012.664C815.929,1010.837 819.702,1010.217 822.774,1010.805C825.847,1011.392 827.956,1013.087 829.101,1015.89C829.644,1017.222 829.775,1018.693 829.491,1020.304C829.207,1021.915 828.354,1023.523 826.93,1025.129C825.506,1026.735 823.378,1028.231 820.547,1029.619L820.518,1029.061C822.141,1028.481 823.589,1028.125 824.862,1027.993C826.134,1027.861 827.286,1027.956 828.316,1028.278C829.347,1028.6 830.315,1029.141 831.221,1029.901C832.127,1030.662 833.023,1031.662 833.909,1032.902L839.11,1039.92L834.973,1039.216L842.419,1037.165L843.589,1040.028C843.004,1040.448 842.474,1040.813 841.998,1041.123C841.523,1041.432 841.035,1041.722 840.534,1041.992C840.035,1042.263 839.417,1042.549 838.682,1042.849Z" style="fill:rgb(232,213,188);fill-rule:nonzero;"/>
            <path d="M875.01,1025.17C872.384,1026.583 869.805,1027.38 867.273,1027.562C864.74,1027.743 862.372,1027.173 860.167,1025.85C857.962,1024.527 856.015,1022.296 854.327,1019.158C854.327,1019.158 849.601,1010.377 848.692,1008.687C847.782,1006.996 846.864,1005.315 845.938,1003.642C845.012,1001.97 844.073,1000.313 843.121,998.673L850.759,994.562C851.588,996.2 852.433,997.868 853.295,999.566C854.157,1001.264 855.046,1002.966 855.963,1004.67C856.88,1006.373 860.642,1013.364 860.642,1013.364C862.085,1016.046 863.54,1017.991 865.007,1019.199C866.474,1020.407 867.994,1021.004 869.568,1020.991C871.142,1020.977 872.784,1020.51 874.494,1019.59C876.26,1018.64 877.565,1017.473 878.41,1016.089C879.255,1014.704 879.561,1013.019 879.326,1011.035C879.092,1009.049 878.246,1006.702 876.789,1003.994L867.027,985.807L870.375,984.006L880.58,1002.873C882.558,1006.515 883.56,1009.749 883.587,1012.574C883.613,1015.398 882.86,1017.843 881.326,1019.91C879.791,1021.976 877.686,1023.73 875.01,1025.17ZM840.482,1003.551L839.039,1000.869L855.651,991.93L857.094,994.612L849.96,999.494L848.568,1000.243L840.482,1003.551ZM863.399,991.219L861.955,988.537L874.901,981.57L876.345,984.253L870.824,988.034L869.493,988.751L863.399,991.219Z" style="fill:rgb(232,213,188);fill-rule:nonzero;"/>
            <path d="M918.156,999.158C916.256,1000.442 914.218,1001.5 912.042,1002.333C909.867,1003.167 907.85,1003.667 905.991,1003.835L901.665,996.738L906.046,993.777L912.205,1000.551L907.361,1001.775L905.694,999.106C907.199,998.958 908.525,998.811 909.671,998.664C910.817,998.518 911.91,998.259 912.951,997.888C913.991,997.517 915.069,996.955 916.184,996.202C917.541,995.284 918.564,994.303 919.252,993.256C919.94,992.21 920.297,991.151 920.323,990.081C920.349,989.011 920.049,988.012 919.422,987.086C918.814,986.185 918.122,985.572 917.347,985.246C916.573,984.92 915.667,984.803 914.629,984.895C913.591,984.987 912.361,985.237 910.937,985.646L908.346,986.152C906.019,986.692 903.865,986.977 901.883,987.007C899.901,987.037 898.106,986.682 896.499,985.942C894.891,985.201 893.5,983.963 892.327,982.227C891.077,980.377 890.504,978.431 890.608,976.386C890.711,974.341 891.422,972.329 892.74,970.349C894.058,968.369 895.914,966.57 898.307,964.953C900.066,963.764 901.874,962.87 903.729,962.272C905.584,961.674 907.344,961.367 909.009,961.348L912.931,967.97L908.627,970.879L902.626,964.466L907.695,963.535L909.496,966.363C907.454,966.153 905.712,966.162 904.27,966.389C902.828,966.616 901.429,967.187 900.074,968.103C899.033,968.806 898.191,969.639 897.548,970.601C896.904,971.562 896.552,972.558 896.49,973.588C896.429,974.617 896.72,975.608 897.363,976.559C897.919,977.383 898.609,977.979 899.43,978.348C900.252,978.716 901.204,978.88 902.286,978.842C903.368,978.803 904.601,978.62 905.987,978.292L908.734,977.652C911.436,977.006 913.778,976.697 915.761,976.723C917.744,976.749 919.443,977.127 920.86,977.858C922.277,978.589 923.512,979.734 924.565,981.291C925.815,983.141 926.4,985.113 926.32,987.206C926.239,989.3 925.517,991.37 924.152,993.418C922.787,995.465 920.788,997.379 918.156,999.158Z" style="fill:rgb(232,213,188);fill-rule:nonzero;"/>
            <path d="M949.605,975.137L947.64,972.748L953.929,966.388L955.447,965.14L962.973,960.141L964.937,962.53L949.605,975.137ZM953.913,971.595C952.178,969.339 950.382,967.065 948.525,964.771C946.668,962.476 944.802,960.189 942.928,957.91L941.411,956.066C939.566,953.821 937.704,951.575 935.827,949.328C933.949,947.081 932.043,944.853 930.107,942.643L936.806,937.135C938.541,939.39 940.333,941.659 942.18,943.941C944.027,946.224 945.897,948.516 947.791,950.82L949.308,952.664C951.153,954.908 953.015,957.154 954.892,959.401C956.77,961.649 958.676,963.877 960.612,966.086L953.913,971.595ZM926.371,959.197L920.042,950.919L946.888,928.845L953.769,936.668L950.126,939.664L942.303,932.614L947.364,932.964L923.974,952.198L924.627,947.15L930.032,956.186L926.371,959.197Z" style="fill:rgb(232,213,188);fill-rule:nonzero;"/>
        </g>
        <g transform="matrix(1,0,0,1,245.218212,581.886967)">
            <g transform="matrix(0.9,0,0,1.24,4.139012,-45.739428)">
                <g transform="matrix(354.166667,0,0,354.166667,761.843825,190.58095)">
                </g>
                <text x="41.39px" y="190.581px" style="font-family:'YoungSerif-Regular', 'Young Serif';font-size:354.167px;fill:rgb(233,215,188);">B<tspan x="280.295px 514.281px " y="190.581px 190.581px ">FL</tspan></text>
            </g>
        </g>
        <g transform="matrix(0.811957,0.811957,-0.899579,0.899579,401.238533,-363.444145)">
            <path d="M466.567,265.242C463.753,261.392 463.753,256.398 466.566,252.548C481.219,232.746 504.316,220.469 529.441,219.79C556.051,219.071 581.094,231.466 596.693,252.556C599.5,256.402 599.5,261.388 596.693,265.234C581.094,286.324 556.051,298.719 529.441,298C504.316,297.321 481.219,285.044 466.567,265.242Z" style="fill:rgb(158,49,46);"/>
            <clipPath id="_clip2">
                <path d="M466.567,265.242C463.753,261.392 463.753,256.398 466.566,252.548C481.219,232.746 504.316,220.469 529.441,219.79C556.051,219.071 581.094,231.466 596.693,252.556C599.5,256.402 599.5,261.388 596.693,265.234C581.094,286.324 556.051,298.719 529.441,298C504.316,297.321 481.219,285.044 466.567,265.242Z"/>
            </clipPath>
            <g clip-path="url(#_clip2)">
                <g transform="matrix(0.792537,0,0,0.715341,60.845847,55.862163)">
                    <rect x="533.935" y="226.88" width="17.256" height="113.893" style="fill:rgb(233,215,188);"/>
                </g>
                <g transform="matrix(0.792537,0,0,0.715341,142.721712,55.862163)">
                    <rect x="533.935" y="226.88" width="17.256" height="113.893" style="fill:rgb(233,215,188);"/>
                </g>
                <g transform="matrix(0.740294,0,0,0.668187,43.244268,-18.954974)">
                    <g transform="matrix(1,0,0,1,67.106764,34.64715)">
                        <path d="M572.022,371.653L572.022,390.707C572.022,393.088 570.088,395.021 567.707,395.021C565.326,395.021 563.393,393.088 563.393,390.707L563.393,371.653C563.393,369.272 565.326,367.339 567.707,367.339C570.088,367.339 572.022,369.272 572.022,371.653Z" style="fill:rgb(232,214,187);"/>
                    </g>
                    <g transform="matrix(1,0,0,1,83.734104,34.64715)">
                        <path d="M572.022,371.653L572.022,390.707C572.022,393.088 570.088,395.021 567.707,395.021C565.326,395.021 563.393,393.088 563.393,390.707L563.393,371.653C563.393,369.272 565.326,367.339 567.707,367.339C570.088,367.339 572.022,369.272 572.022,371.653Z" style="fill:rgb(232,214,187);"/>
                    </g>
                    <g transform="matrix(1,0,0,1,100.320943,34.64715)">
                        <path d="M572.022,371.653L572.022,390.707C572.022,393.088 570.088,395.021 567.707,395.021C565.326,395.021 563.393,393.088 563.393,390.707L563.393,371.653C563.393,369.272 565.326,367.339 567.707,367.339C570.088,367.339 572.022,369.272 572.022,371.653Z" style="fill:rgb(232,214,187);"/>
                    </g>
                    <g transform="matrix(1,0,0,1,116.90778,34.64715)">
                        <path d="M572.022,371.653L572.022,390.707C572.022,393.088 570.088,395.021 567.707,395.021C565.326,395.021 563.393,393.088 563.393,390.707L563.393,371.653C563.393,369.272 565.326,367.339 567.707,367.339C570.088,367.339 572.022,369.272 572.022,371.653Z" style="fill:rgb(232,214,187);"/>
                    </g>
                    <g transform="matrix(0,1,-2.55276,0,1632.775071,-151.880562)">
                        <path d="M572.022,369.029L572.022,393.331C572.022,394.264 570.088,395.021 567.707,395.021C565.326,395.021 563.393,394.264 563.393,393.331L563.393,369.029C563.393,368.096 565.326,367.339 567.707,367.339C570.088,367.339 572.022,368.096 572.022,369.029Z" style="fill:rgb(232,214,187);"/>
                    </g>
                </g>
            </g>
        </g>
        <g transform="matrix(1.203369,0,0,1.218666,568.79327,247.406677)">
            <path d="M423.141,292.559L431.087,317.016L456.802,317.016L435.998,332.131L443.945,356.587L423.141,341.472L402.337,356.587L410.283,332.131L389.479,317.016L415.194,317.016L423.141,292.559Z" style="fill:rgb(233,215,188);"/>
        </g>
        <g transform="matrix(1.203369,0,0,1.218666,-386.137279,247.406677)">
            <path d="M423.141,292.559L431.087,317.016L456.802,317.016L435.998,332.131L443.945,356.587L423.141,341.472L402.337,356.587L410.283,332.131L389.479,317.016L415.194,317.016L423.141,292.559Z" style="fill:rgb(233,215,188);"/>
        </g>
    </g>
</svg>
