<?xml version="1.0" encoding="UTF-8" standalone="no"?>
<!DOCTYPE svg PUBLIC "-//W3C//DTD SVG 1.1//EN" "http://www.w3.org/Graphics/SVG/1.1/DTD/svg11.dtd">
<svg width="100%" height="100%" viewBox="0 0 1200 1200" version="1.1" xmlns="http://www.w3.org/2000/svg" xmlns:xlink="http://www.w3.org/1999/xlink" xml:space="preserve" xmlns:serif="http://www.serif.com/" style="fill-rule:evenodd;clip-rule:evenodd;stroke-linejoin:round;stroke-miterlimit:2;">
    <rect id="Artboard1" x="0" y="0" width="1200" height="1200" style="fill:none;"/>
    <g id="Artboard11" serif:id="Artboard1">
        <g transform="matrix(1.679885,0,0,1.679885,-22.491417,556.133115)">
            <path d="M158.371,-138.794C173.246,-138.794 186.581,-135.281 198.374,-128.254C210.168,-121.227 219.571,-111.712 226.584,-99.708C233.596,-87.704 237.103,-74.237 237.103,-59.305C237.103,-46.715 234.34,-35.151 228.815,-24.611C223.29,-14.071 215.321,-5.141 204.909,2.178C221.484,8.62 234.446,19.965 243.796,36.214C253.146,52.463 257.821,71.567 257.821,93.525C257.821,112.556 254.209,129.39 246.984,144.029C239.759,158.668 229.771,170.087 217.021,178.284C204.271,186.482 189.503,190.581 172.715,190.581L55.734,190.581C52.546,190.581 50.953,188.385 50.953,183.993L50.953,170.818C50.953,166.427 52.546,164.231 55.734,164.231C71.459,164.231 79.321,150.324 79.321,122.51L79.321,-70.723C79.321,-98.537 71.459,-112.444 55.734,-112.444C52.546,-112.444 50.953,-114.64 50.953,-119.032L50.953,-132.207C50.953,-136.598 52.546,-138.794 55.734,-138.794L158.371,-138.794ZM148.171,-6.166C161.346,-6.166 171.493,-10.85 178.612,-20.219C185.731,-29.588 189.29,-42.617 189.29,-59.305C189.29,-75.993 185.784,-89.022 178.771,-98.391C171.759,-107.76 161.984,-112.444 149.446,-112.444L130.003,-112.444L130.003,-6.166L148.171,-6.166ZM159.009,164.231C175.159,164.231 187.696,158.009 196.621,145.566C205.546,133.123 210.009,115.776 210.009,93.525C210.009,47.852 189.503,25.015 148.49,25.015L130.003,25.015L130.003,122.51C130.003,135.978 131.809,146.298 135.421,153.471C139.034,160.644 144.24,164.231 151.04,164.231L159.009,164.231Z" style="fill:rgb(17,17,17);fill-rule:nonzero;"/>
            <path d="M345.017,122.51C345.017,135.685 346.823,145.932 350.436,153.252C354.048,160.571 359.467,164.231 366.692,164.231L368.923,164.231C372.111,164.231 373.705,166.427 373.705,170.818L373.705,183.993C373.705,188.385 372.111,190.581 368.923,190.581L270.748,190.581C267.561,190.581 265.967,188.385 265.967,183.993L265.967,170.818C265.967,166.427 267.561,164.231 270.748,164.231L271.386,164.231C286.686,164.231 294.336,150.324 294.336,122.51L294.336,-70.284C294.336,-98.098 286.58,-112.005 271.067,-112.005L270.748,-112.005C267.561,-112.005 265.967,-114.201 265.967,-118.592L265.967,-131.767C265.967,-136.452 267.561,-138.794 270.748,-138.794L430.442,-138.794C433.205,-138.794 435.223,-139.526 436.498,-140.99L438.411,-143.186C439.048,-144.064 439.898,-144.503 440.961,-144.503C442.661,-144.503 444.042,-143.332 445.105,-140.99L470.286,-81.263C470.923,-80.092 471.242,-78.775 471.242,-77.311C471.242,-75.261 470.392,-73.505 468.692,-72.041L455.942,-62.379C454.455,-61.208 453.286,-60.622 452.436,-60.622C450.948,-60.622 449.673,-61.94 448.611,-64.575L447.655,-66.771C441.067,-81.995 432.939,-92.608 423.27,-98.61C413.602,-104.612 402.605,-107.613 390.28,-107.613L345.017,-107.613L345.017,-0.017L373.067,-0.017C382.63,-0.017 390.067,-2.506 395.38,-7.483C400.692,-12.46 403.348,-19.78 403.348,-29.442L403.348,-32.516C403.348,-36.907 404.942,-39.103 408.13,-39.103L417.692,-39.103C420.88,-39.103 422.473,-36.907 422.473,-32.516L422.473,67.175C422.473,71.567 420.88,73.763 417.692,73.763L408.13,73.763C404.942,73.763 403.348,71.567 403.348,67.175L403.348,64.54C403.348,54.586 400.745,47.193 395.539,42.362C390.333,37.531 382.842,35.116 373.067,35.116L345.017,35.116L345.017,122.51Z" style="fill:rgb(17,17,17);fill-rule:nonzero;"/>
            <path d="M683.742,96.599C685.655,97.77 686.611,99.527 686.611,101.869C686.611,102.162 686.558,102.528 686.452,102.967C686.345,103.406 686.08,104.358 685.655,105.822L655.692,192.777C654.842,195.412 653.567,196.729 651.867,196.729C651.442,196.729 650.911,196.51 650.273,196.071C649.636,195.631 648.68,194.533 647.405,192.777C646.342,191.313 644.217,190.581 641.03,190.581L481.336,190.581C478.148,190.581 476.555,188.385 476.555,183.993L476.555,170.818C476.555,166.427 478.148,164.231 481.336,164.231C497.061,164.231 504.923,150.324 504.923,122.51L504.923,-70.284C504.923,-98.098 497.061,-112.005 481.336,-112.005C478.148,-112.005 476.555,-114.201 476.555,-118.592L476.555,-131.767C476.555,-136.452 478.148,-138.794 481.336,-138.794L577.917,-138.794C581.955,-138.794 583.973,-136.452 583.973,-131.767L583.973,-118.592C583.973,-114.201 582.061,-112.005 578.236,-112.005L555.605,-112.005L555.605,117.679C555.605,145.493 562.936,159.4 577.598,159.4L590.03,159.4C605.542,159.4 619.78,154.789 632.742,145.566C645.705,136.344 656.755,118.997 665.892,93.525L666.848,90.89C667.911,88.255 669.186,86.938 670.673,86.938C671.736,86.938 672.692,87.377 673.542,88.255L683.742,96.599Z" style="fill:rgb(17,17,17);fill-rule:nonzero;"/>
        </g>
    </g>
</svg>
