<?xml version="1.0" encoding="UTF-8" standalone="no"?>
<!DOCTYPE svg PUBLIC "-//W3C//DTD SVG 1.1//EN" "http://www.w3.org/Graphics/SVG/1.1/DTD/svg11.dtd">
<svg width="100%" height="100%" viewBox="0 0 1200 1200" version="1.1" xmlns="http://www.w3.org/2000/svg" xmlns:xlink="http://www.w3.org/1999/xlink" xml:space="preserve" xmlns:serif="http://www.serif.com/" style="fill-rule:evenodd;clip-rule:evenodd;stroke-linecap:round;stroke-linejoin:round;stroke-miterlimit:1.5;">
    <rect id="Artboard1" x="0" y="0" width="1200" height="1200" style="fill:none;"/>
    <g id="Artboard11" serif:id="Artboard1">
        <g transform="matrix(0.899925,0,0,0.899925,30.1269,83.19676)">
            <circle cx="633.245" cy="574.274" r="472.788" style="fill:rgb(28,41,59);"/>
            <clipPath id="_clip1">
                <circle cx="633.245" cy="574.274" r="472.788"/>
            </clipPath>
            <g clip-path="url(#_clip1)">
                <g transform="matrix(1.131801,0,0,0.765414,2.245999,258.16592)">
                    <g transform="matrix(1.276883,0,0,1.276883,-446.324988,836.091753)">
                        <g transform="matrix(0.671341,0,0,1,129.136273,268.27496)">
                            <rect x="375.805" y="-268.275" width="57.6" height="207.085" style="fill:rgb(233,215,188);"/>
                        </g>
                        <g transform="matrix(0.671341,0,0,1,167.805434,268.27496)">
                            <rect x="375.805" y="-268.275" width="57.6" height="207.085" style="fill:rgb(141,29,27);"/>
                        </g>
                        <g transform="matrix(0.671341,0,0,1,206.474596,268.27496)">
                            <rect x="375.805" y="-268.275" width="57.6" height="207.085" style="fill:rgb(233,215,188);"/>
                        </g>
                        <g transform="matrix(0.671341,0,0,1,245.143757,268.27496)">
                            <rect x="375.805" y="-268.275" width="57.6" height="207.085" style="fill:rgb(141,29,27);"/>
                        </g>
                        <g transform="matrix(0.671341,0,0,1,283.812919,268.27496)">
                            <rect x="375.805" y="-268.275" width="57.6" height="207.085" style="fill:rgb(233,215,188);"/>
                        </g>
                        <g transform="matrix(0.671341,0,0,1,322.482081,268.27496)">
                            <rect x="375.805" y="-268.275" width="57.6" height="207.085" style="fill:rgb(158,49,46);"/>
                        </g>
                        <g transform="matrix(0.671341,0,0,1,361.151242,268.27496)">
                            <rect x="375.805" y="-268.275" width="57.6" height="207.085" style="fill:rgb(233,215,188);"/>
                        </g>
                        <g transform="matrix(0.671341,0,0,1,399.820404,268.27496)">
                            <rect x="375.805" y="-268.275" width="57.6" height="207.085" style="fill:rgb(158,49,46);"/>
                        </g>
                        <g transform="matrix(0.671341,0,0,1,438.489565,268.27496)">
                            <rect x="375.805" y="-268.275" width="57.6" height="207.085" style="fill:rgb(233,215,188);"/>
                        </g>
                        <g transform="matrix(0.671341,0,0,1,477.158727,268.27496)">
                            <rect x="375.805" y="-268.275" width="57.6" height="207.085" style="fill:rgb(158,49,46);"/>
                        </g>
                        <g transform="matrix(0.671341,0,0,1,515.827889,268.27496)">
                            <rect x="375.805" y="-268.275" width="57.6" height="207.085" style="fill:rgb(233,215,188);"/>
                        </g>
                        <g transform="matrix(0.671341,0,0,1,554.49705,268.27496)">
                            <rect x="375.805" y="-268.275" width="57.6" height="207.085" style="fill:rgb(158,49,46);"/>
                        </g>
                        <g transform="matrix(0.671341,0,0,1,593.194283,268.27496)">
                            <rect x="375.805" y="-268.275" width="57.6" height="207.085" style="fill:rgb(233,215,188);"/>
                        </g>
                        <g transform="matrix(0.671341,0,0,1,631.863445,268.27496)">
                            <rect x="375.805" y="-268.275" width="57.6" height="207.085" style="fill:rgb(158,49,46);"/>
                        </g>
                        <g transform="matrix(0.671341,0,0,1,670.532606,268.27496)">
                            <rect x="375.805" y="-268.275" width="57.6" height="207.085" style="fill:rgb(233,215,188);"/>
                        </g>
                        <g transform="matrix(0.671341,0,0,1,709.201768,268.27496)">
                            <rect x="375.805" y="-268.275" width="57.6" height="207.085" style="fill:rgb(158,49,46);"/>
                        </g>
                        <g transform="matrix(0.671341,0,0,1,747.870929,268.27496)">
                            <rect x="375.805" y="-268.275" width="57.6" height="207.085" style="fill:rgb(233,215,188);"/>
                        </g>
                        <g transform="matrix(0.671341,0,0,1,786.540091,268.27496)">
                            <rect x="375.805" y="-268.275" width="57.6" height="207.085" style="fill:rgb(158,49,46);"/>
                        </g>
                        <g transform="matrix(0.671341,0,0,1,825.209253,268.27496)">
                            <rect x="375.805" y="-268.275" width="57.6" height="207.085" style="fill:rgb(233,215,188);"/>
                        </g>
                        <g transform="matrix(0.671341,0,0,1,863.878414,268.27496)">
                            <rect x="375.805" y="-268.275" width="57.6" height="207.085" style="fill:rgb(141,29,27);"/>
                        </g>
                        <g transform="matrix(0.671341,0,0,1,902.547576,268.27496)">
                            <rect x="375.805" y="-268.275" width="57.6" height="207.085" style="fill:rgb(233,215,188);"/>
                        </g>
                        <g transform="matrix(0.671341,0,0,1,941.216738,268.27496)">
                            <rect x="375.805" y="-268.275" width="57.6" height="207.085" style="fill:rgb(141,29,27);"/>
                        </g>
                        <g transform="matrix(0.671341,0,0,1,979.885899,268.27496)">
                            <rect x="375.805" y="-268.275" width="57.6" height="207.085" style="fill:rgb(233,215,188);"/>
                        </g>
                    </g>
                    <g transform="matrix(1.102347,0,0,1.111204,-28.387636,-90.252512)">
                        <path d="M242.961,830.45L957.594,830.45" style="fill:none;stroke:rgb(233,215,188);stroke-width:8.67px;"/>
                    </g>
                </g>
            </g>
            <path d="M633.245,64.446C914.627,64.446 1143.073,292.892 1143.073,574.274C1143.073,855.656 914.627,1084.102 633.245,1084.102C351.863,1084.102 123.417,855.656 123.417,574.274C123.417,292.892 351.863,64.446 633.245,64.446ZM633.245,101.486C372.306,101.486 160.457,313.335 160.457,574.274C160.457,835.213 372.306,1047.062 633.245,1047.062C894.184,1047.062 1106.033,835.213 1106.033,574.274C1106.033,313.335 894.184,101.486 633.245,101.486Z" style="fill:rgb(233,215,188);"/>
        </g>
        <g transform="matrix(1,0,0,1,245.218212,581.886967)">
            <g transform="matrix(0.9,0,0,1.24,4.139012,-45.739428)">
                <g transform="matrix(354.166667,0,0,354.166667,761.843825,190.58095)">
                </g>
                <text x="41.39px" y="190.581px" style="font-family:'YoungSerif-Regular', 'Young Serif';font-size:354.167px;fill:rgb(233,215,188);">B<tspan x="280.295px 514.281px " y="190.581px 190.581px ">FL</tspan></text>
            </g>
        </g>
        <g transform="matrix(0.811957,0.811957,-0.899579,0.899579,401.238533,-363.444145)">
            <path d="M466.567,265.242C463.753,261.392 463.753,256.398 466.566,252.548C481.219,232.746 504.316,220.469 529.441,219.79C556.051,219.071 581.094,231.466 596.693,252.556C599.5,256.402 599.5,261.388 596.693,265.234C581.094,286.324 556.051,298.719 529.441,298C504.316,297.321 481.219,285.044 466.567,265.242Z" style="fill:rgb(158,49,46);"/>
            <clipPath id="_clip2">
                <path d="M466.567,265.242C463.753,261.392 463.753,256.398 466.566,252.548C481.219,232.746 504.316,220.469 529.441,219.79C556.051,219.071 581.094,231.466 596.693,252.556C599.5,256.402 599.5,261.388 596.693,265.234C581.094,286.324 556.051,298.719 529.441,298C504.316,297.321 481.219,285.044 466.567,265.242Z"/>
            </clipPath>
            <g clip-path="url(#_clip2)">
                <g transform="matrix(0.792537,0,0,0.715341,60.845847,55.862163)">
                    <rect x="533.935" y="226.88" width="17.256" height="113.893" style="fill:rgb(233,215,188);"/>
                </g>
                <g transform="matrix(0.792537,0,0,0.715341,142.721712,55.862163)">
                    <rect x="533.935" y="226.88" width="17.256" height="113.893" style="fill:rgb(233,215,188);"/>
                </g>
                <g transform="matrix(0.740294,0,0,0.668187,43.244268,-18.954974)">
                    <g transform="matrix(1,0,0,1,67.106764,34.64715)">
                        <path d="M572.022,371.653L572.022,390.707C572.022,393.088 570.088,395.021 567.707,395.021C565.326,395.021 563.393,393.088 563.393,390.707L563.393,371.653C563.393,369.272 565.326,367.339 567.707,367.339C570.088,367.339 572.022,369.272 572.022,371.653Z" style="fill:rgb(232,214,187);"/>
                    </g>
                    <g transform="matrix(1,0,0,1,83.734104,34.64715)">
                        <path d="M572.022,371.653L572.022,390.707C572.022,393.088 570.088,395.021 567.707,395.021C565.326,395.021 563.393,393.088 563.393,390.707L563.393,371.653C563.393,369.272 565.326,367.339 567.707,367.339C570.088,367.339 572.022,369.272 572.022,371.653Z" style="fill:rgb(232,214,187);"/>
                    </g>
                    <g transform="matrix(1,0,0,1,100.320943,34.64715)">
                        <path d="M572.022,371.653L572.022,390.707C572.022,393.088 570.088,395.021 567.707,395.021C565.326,395.021 563.393,393.088 563.393,390.707L563.393,371.653C563.393,369.272 565.326,367.339 567.707,367.339C570.088,367.339 572.022,369.272 572.022,371.653Z" style="fill:rgb(232,214,187);"/>
                    </g>
                    <g transform="matrix(1,0,0,1,116.90778,34.64715)">
                        <path d="M572.022,371.653L572.022,390.707C572.022,393.088 570.088,395.021 567.707,395.021C565.326,395.021 563.393,393.088 563.393,390.707L563.393,371.653C563.393,369.272 565.326,367.339 567.707,367.339C570.088,367.339 572.022,369.272 572.022,371.653Z" style="fill:rgb(232,214,187);"/>
                    </g>
                    <g transform="matrix(0,1,-2.55276,0,1632.775071,-151.880562)">
                        <path d="M572.022,369.029L572.022,393.331C572.022,394.264 570.088,395.021 567.707,395.021C565.326,395.021 563.393,394.264 563.393,393.331L563.393,369.029C563.393,368.096 565.326,367.339 567.707,367.339C570.088,367.339 572.022,368.096 572.022,369.029Z" style="fill:rgb(232,214,187);"/>
                    </g>
                </g>
            </g>
        </g>
        <g transform="matrix(1,0,0,1,0.061376,-0.061376)">
            <g transform="matrix(1.203369,0,0,1.218666,-52.996544,-94.435898)">
                <path d="M423.141,292.559L431.087,317.016L456.802,317.016L435.998,332.131L443.945,356.587L423.141,341.472L402.337,356.587L410.283,332.131L389.479,317.016L415.194,317.016L423.141,292.559Z" style="fill:rgb(233,215,188);"/>
            </g>
            <g transform="matrix(1.203369,0,0,1.218666,234.485448,-94.435898)">
                <path d="M423.141,292.559L431.087,317.016L456.802,317.016L435.998,332.131L443.945,356.587L423.141,341.472L402.337,356.587L410.283,332.131L389.479,317.016L415.194,317.016L423.141,292.559Z" style="fill:rgb(233,215,188);"/>
            </g>
        </g>
    </g>
</svg>
